<svg id="visual" viewBox="0 0 900 900" width="900" height="900" xmlns="http://www.w3.org/2000/svg" xmlns:xlink="http://www.w3.org/1999/xlink" version="1.1"><rect x="0" y="0" width="900" height="900" fill="#f3f3f3"></rect><path d="M0 623L21.5 608.7C43 594.3 86 565.7 128.8 567.8C171.7 570 214.3 603 257.2 612.8C300 622.7 343 609.3 385.8 608C428.7 606.7 471.3 617.3 514.2 610.5C557 603.7 600 579.3 642.8 577.7C685.7 576 728.3 597 771.2 612.7C814 628.3 857 638.7 878.5 643.8L900 649L900 901L878.5 901C857 901 814 901 771.2 901C728.3 901 685.7 901 642.8 901C600 901 557 901 514.2 901C471.3 901 428.7 901 385.8 901C343 901 300 901 257.2 901C214.3 901 171.7 901 128.8 901C86 901 43 901 21.5 901L0 901Z" fill="#c62368"></path><path d="M0 634L21.5 636C43 638 86 642 128.8 645.3C171.7 648.7 214.3 651.3 257.2 644.7C300 638 343 622 385.8 631.3C428.7 640.7 471.3 675.3 514.2 694.2C557 713 600 716 642.8 698C685.7 680 728.3 641 771.2 640.5C814 640 857 678 878.5 697L900 716L900 901L878.5 901C857 901 814 901 771.2 901C728.3 901 685.7 901 642.8 901C600 901 557 901 514.2 901C471.3 901 428.7 901 385.8 901C343 901 300 901 257.2 901C214.3 901 171.7 901 128.8 901C86 901 43 901 21.5 901L0 901Z" fill="#d53867"></path><path d="M0 764L21.5 753.3C43 742.7 86 721.3 128.8 716.2C171.7 711 214.3 722 257.2 724.3C300 726.7 343 720.3 385.8 722.2C428.7 724 471.3 734 514.2 739C557 744 600 744 642.8 744.2C685.7 744.3 728.3 744.7 771.2 744.8C814 745 857 745 878.5 745L900 745L900 901L878.5 901C857 901 814 901 771.2 901C728.3 901 685.7 901 642.8 901C600 901 557 901 514.2 901C471.3 901 428.7 901 385.8 901C343 901 300 901 257.2 901C214.3 901 171.7 901 128.8 901C86 901 43 901 21.5 901L0 901Z" fill="#e34c67"></path><path d="M0 731L21.5 735.3C43 739.7 86 748.3 128.8 751.5C171.7 754.7 214.3 752.3 257.2 752.7C300 753 343 756 385.8 760.3C428.7 764.7 471.3 770.3 514.2 779.3C557 788.3 600 800.7 642.8 805C685.7 809.3 728.3 805.7 771.2 792C814 778.3 857 754.7 878.5 742.8L900 731L900 901L878.5 901C857 901 814 901 771.2 901C728.3 901 685.7 901 642.8 901C600 901 557 901 514.2 901C471.3 901 428.7 901 385.8 901C343 901 300 901 257.2 901C214.3 901 171.7 901 128.8 901C86 901 43 901 21.5 901L0 901Z" fill="#ef5f67"></path><path d="M0 848L21.5 850.2C43 852.3 86 856.7 128.8 853.2C171.7 849.7 214.3 838.3 257.2 828.7C300 819 343 811 385.8 810.2C428.7 809.3 471.3 815.7 514.2 813.8C557 812 600 802 642.8 807C685.7 812 728.3 832 771.2 839.2C814 846.3 857 840.7 878.5 837.8L900 835L900 901L878.5 901C857 901 814 901 771.2 901C728.3 901 685.7 901 642.8 901C600 901 557 901 514.2 901C471.3 901 428.7 901 385.8 901C343 901 300 901 257.2 901C214.3 901 171.7 901 128.8 901C86 901 43 901 21.5 901L0 901Z" fill="#fa7268"></path></svg>