<svg id="visual" viewBox="0 0 900 450" width="900" height="450" xmlns="http://www.w3.org/2000/svg" xmlns:xlink="http://www.w3.org/1999/xlink" version="1.1"><rect x="0" y="0" width="900" height="450" fill="#f3f3f3"></rect><path d="M0 277L21.5 277.3C43 277.7 86 278.3 128.8 279C171.7 279.7 214.3 280.3 257.2 289.3C300 298.3 343 315.7 385.8 322.3C428.7 329 471.3 325 514.2 315.5C557 306 600 291 642.8 292.7C685.7 294.3 728.3 312.7 771.2 316.3C814 320 857 309 878.5 303.5L900 298L900 451L878.5 451C857 451 814 451 771.2 451C728.3 451 685.7 451 642.8 451C600 451 557 451 514.2 451C471.3 451 428.7 451 385.8 451C343 451 300 451 257.2 451C214.3 451 171.7 451 128.8 451C86 451 43 451 21.5 451L0 451Z" fill="#fa7268"></path><path d="M0 358L21.5 351.8C43 345.7 86 333.3 128.8 328.8C171.7 324.3 214.3 327.7 257.2 329.3C300 331 343 331 385.8 326.7C428.7 322.3 471.3 313.7 514.2 308.3C557 303 600 301 642.8 304.8C685.7 308.7 728.3 318.3 771.2 322C814 325.7 857 323.3 878.5 322.2L900 321L900 451L878.5 451C857 451 814 451 771.2 451C728.3 451 685.7 451 642.8 451C600 451 557 451 514.2 451C471.3 451 428.7 451 385.8 451C343 451 300 451 257.2 451C214.3 451 171.7 451 128.8 451C86 451 43 451 21.5 451L0 451Z" fill="#ef5f67"></path><path d="M0 359L21.5 354.7C43 350.3 86 341.7 128.8 339C171.7 336.3 214.3 339.7 257.2 345.5C300 351.3 343 359.7 385.8 364.5C428.7 369.3 471.3 370.7 514.2 364.2C557 357.7 600 343.3 642.8 336.5C685.7 329.7 728.3 330.3 771.2 337C814 343.7 857 356.3 878.5 362.7L900 369L900 451L878.5 451C857 451 814 451 771.2 451C728.3 451 685.7 451 642.8 451C600 451 557 451 514.2 451C471.3 451 428.7 451 385.8 451C343 451 300 451 257.2 451C214.3 451 171.7 451 128.8 451C86 451 43 451 21.5 451L0 451Z" fill="#e34c67"></path><path d="M0 380L21.5 378.5C43 377 86 374 128.8 376.7C171.7 379.3 214.3 387.7 257.2 392.3C300 397 343 398 385.8 398.3C428.7 398.7 471.3 398.3 514.2 396.5C557 394.7 600 391.3 642.8 388.7C685.7 386 728.3 384 771.2 381.2C814 378.3 857 374.7 878.5 372.8L900 371L900 451L878.5 451C857 451 814 451 771.2 451C728.3 451 685.7 451 642.8 451C600 451 557 451 514.2 451C471.3 451 428.7 451 385.8 451C343 451 300 451 257.2 451C214.3 451 171.7 451 128.8 451C86 451 43 451 21.5 451L0 451Z" fill="#d53867"></path><path d="M0 400L21.5 402.8C43 405.7 86 411.3 128.8 413.8C171.7 416.3 214.3 415.7 257.2 417.3C300 419 343 423 385.8 425.3C428.7 427.7 471.3 428.3 514.2 423C557 417.7 600 406.3 642.8 400.5C685.7 394.7 728.3 394.3 771.2 396C814 397.7 857 401.3 878.5 403.2L900 405L900 451L878.5 451C857 451 814 451 771.2 451C728.3 451 685.7 451 642.8 451C600 451 557 451 514.2 451C471.3 451 428.7 451 385.8 451C343 451 300 451 257.2 451C214.3 451 171.7 451 128.8 451C86 451 43 451 21.5 451L0 451Z" fill="#c62368"></path></svg>