<svg id="visual" viewBox="0 0 1600 900" width="1600" height="900" xmlns="http://www.w3.org/2000/svg" xmlns:xlink="http://www.w3.org/1999/xlink" version="1.1"><rect x="0" y="0" width="1600" height="900" fill="#d04451"></rect><path d="M0 752L24.2 750.5C48.3 749 96.7 746 145.2 737.5C193.7 729 242.3 715 290.8 718.8C339.3 722.7 387.7 744.3 436.2 751.5C484.7 758.7 533.3 751.3 581.8 742.3C630.3 733.3 678.7 722.7 727.2 717.3C775.7 712 824.3 712 872.8 719.7C921.3 727.3 969.7 742.7 1018.2 746.8C1066.7 751 1115.3 744 1163.8 733.2C1212.3 722.3 1260.7 707.7 1309.2 712.7C1357.7 717.7 1406.3 742.3 1454.8 752.5C1503.3 762.7 1551.7 758.3 1575.8 756.2L1600 754L1600 901L1575.8 901C1551.7 901 1503.3 901 1454.8 901C1406.3 901 1357.7 901 1309.2 901C1260.7 901 1212.3 901 1163.8 901C1115.3 901 1066.7 901 1018.2 901C969.7 901 921.3 901 872.8 901C824.3 901 775.7 901 727.2 901C678.7 901 630.3 901 581.8 901C533.3 901 484.7 901 436.2 901C387.7 901 339.3 901 290.8 901C242.3 901 193.7 901 145.2 901C96.7 901 48.3 901 24.2 901L0 901Z" fill="#d3d1d1"></path><path d="M0 780L24.2 777.3C48.3 774.7 96.7 769.3 145.2 764.8C193.7 760.3 242.3 756.7 290.8 759.3C339.3 762 387.7 771 436.2 772.3C484.7 773.7 533.3 767.3 581.8 760.5C630.3 753.7 678.7 746.3 727.2 745C775.7 743.7 824.3 748.3 872.8 753.3C921.3 758.3 969.7 763.7 1018.2 758C1066.7 752.3 1115.3 735.7 1163.8 739.7C1212.3 743.7 1260.7 768.3 1309.2 773.5C1357.7 778.7 1406.3 764.3 1454.8 759.8C1503.3 755.3 1551.7 760.7 1575.8 763.3L1600 766L1600 901L1575.8 901C1551.7 901 1503.3 901 1454.8 901C1406.3 901 1357.7 901 1309.2 901C1260.7 901 1212.3 901 1163.8 901C1115.3 901 1066.7 901 1018.2 901C969.7 901 921.3 901 872.8 901C824.3 901 775.7 901 727.2 901C678.7 901 630.3 901 581.8 901C533.3 901 484.7 901 436.2 901C387.7 901 339.3 901 290.8 901C242.3 901 193.7 901 145.2 901C96.7 901 48.3 901 24.2 901L0 901Z" fill="#d4bdbd"></path><path d="M0 795L24.2 800C48.3 805 96.7 815 145.2 816.3C193.7 817.7 242.3 810.3 290.8 809C339.3 807.7 387.7 812.3 436.2 802.8C484.7 793.3 533.3 769.7 581.8 765.3C630.3 761 678.7 776 727.2 779.5C775.7 783 824.3 775 872.8 769.8C921.3 764.7 969.7 762.3 1018.2 769.3C1066.7 776.3 1115.3 792.7 1163.8 794.7C1212.3 796.7 1260.7 784.3 1309.2 779.7C1357.7 775 1406.3 778 1454.8 779.2C1503.3 780.3 1551.7 779.7 1575.8 779.3L1600 779L1600 901L1575.8 901C1551.7 901 1503.3 901 1454.8 901C1406.3 901 1357.7 901 1309.2 901C1260.7 901 1212.3 901 1163.8 901C1115.3 901 1066.7 901 1018.2 901C969.7 901 921.3 901 872.8 901C824.3 901 775.7 901 727.2 901C678.7 901 630.3 901 581.8 901C533.3 901 484.7 901 436.2 901C387.7 901 339.3 901 290.8 901C242.3 901 193.7 901 145.2 901C96.7 901 48.3 901 24.2 901L0 901Z" fill="#d3aaa8"></path><path d="M0 798L24.2 798.3C48.3 798.7 96.7 799.3 145.2 798C193.7 796.7 242.3 793.3 290.8 800.7C339.3 808 387.7 826 436.2 828.5C484.7 831 533.3 818 581.8 809.8C630.3 801.7 678.7 798.3 727.2 801.3C775.7 804.3 824.3 813.7 872.8 822.5C921.3 831.3 969.7 839.7 1018.2 837.2C1066.7 834.7 1115.3 821.3 1163.8 813.7C1212.3 806 1260.7 804 1309.2 804.8C1357.7 805.7 1406.3 809.3 1454.8 814.3C1503.3 819.3 1551.7 825.7 1575.8 828.8L1600 832L1600 901L1575.8 901C1551.7 901 1503.3 901 1454.8 901C1406.3 901 1357.7 901 1309.2 901C1260.7 901 1212.3 901 1163.8 901C1115.3 901 1066.7 901 1018.2 901C969.7 901 921.3 901 872.8 901C824.3 901 775.7 901 727.2 901C678.7 901 630.3 901 581.8 901C533.3 901 484.7 901 436.2 901C387.7 901 339.3 901 290.8 901C242.3 901 193.7 901 145.2 901C96.7 901 48.3 901 24.2 901L0 901Z" fill="#d19693"></path><path d="M0 868L24.2 868.8C48.3 869.7 96.7 871.3 145.2 870.7C193.7 870 242.3 867 290.8 865.3C339.3 863.7 387.7 863.3 436.2 859.7C484.7 856 533.3 849 581.8 850.3C630.3 851.7 678.7 861.3 727.2 866.5C775.7 871.7 824.3 872.3 872.8 873.5C921.3 874.7 969.7 876.3 1018.2 877.2C1066.7 878 1115.3 878 1163.8 874.5C1212.3 871 1260.7 864 1309.2 856.2C1357.7 848.3 1406.3 839.7 1454.8 836.7C1503.3 833.7 1551.7 836.3 1575.8 837.7L1600 839L1600 901L1575.8 901C1551.7 901 1503.3 901 1454.8 901C1406.3 901 1357.7 901 1309.2 901C1260.7 901 1212.3 901 1163.8 901C1115.3 901 1066.7 901 1018.2 901C969.7 901 921.3 901 872.8 901C824.3 901 775.7 901 727.2 901C678.7 901 630.3 901 581.8 901C533.3 901 484.7 901 436.2 901C387.7 901 339.3 901 290.8 901C242.3 901 193.7 901 145.2 901C96.7 901 48.3 901 24.2 901L0 901Z" fill="#cd837d"></path></svg>